# xmcd
#
# Track frame offsets:
#	150
#	12727
#	20252
#	31372
#	40412
#	55205
#	64025
#	78610
#	91772
#	96400
#	108980
#	123122
#	135857
#	148552
#
# Disc length: 2085 seconds
#
# Revision: 1
# Processed by: cddbd v1.5.1PL0 Copyright (c) Steve Scherf et al.
# Submitted via: audiograbber 1.83.01
#
DISCID=b308230e
DTITLE=Sekailaisia esittäjiä - Tenava tahdit 1
DYEAR=1991
DGENRE=Lapset
TTITLE0=Tao Tao
TTITLE1=Peppi Pitkätossu
TTITLE2=Batman
TTITLE3=Etkö ymmärrä
TTITLE4=Magdaleena
TTITLE5=Tässä tulee Rölli
TTITLE6=Lounatuulen laulu
TTITLE7=Liisa Ihmemaassa
TTITLE8=Pii, pii pikkuinen lintu
TTITLE9=Peukaloisen retket
TTITLE10=Ihme ja kumma
TTITLE11=Maija Mehiläinen
TTITLE12=Liisa Ihmemaasssa
TTITLE13=Pikku Nukkumatti
EXTD=
EXTT0=Tao Tao piirros sarja n tunnus musiikki.
EXTT1=
EXTT2=
EXTT3=
EXTT4=
EXTT5=
EXTT6=
EXTT7=Esittäjät C. Bruhn ja A. Wagner/M. Kontio
EXTT8=
EXTT9=
EXTT10=
EXTT11=
EXTT12=Esittäjät S. Fain ja K. Solanterä
EXTT13=
PLAYORDER=
